HIERARCHY
ROOT joint_Root
{
	OFFSET 0.0 0.0 0.0
	CHANNELS 6 Xposition Yposition Zposition Zrotation Xrotation Yrotation 
	JOINT Hips
	{
		OFFSET -17.1583 93.1646 452.98
		CHANNELS 6 Xposition Yposition Zposition Zrotation Xrotation Yrotation 
		JOINT Spine
		{
			OFFSET 15.7357 0.0 0.0
			CHANNELS 6 Xposition Yposition Zposition Zrotation Xrotation Yrotation 
			JOINT Chest
			{
				OFFSET 8.98455 -0.406207 0.0
				CHANNELS 6 Xposition Yposition Zposition Zrotation Xrotation Yrotation 
				JOINT Neck
				{
					OFFSET 16.3773 0.0 0.0
					CHANNELS 6 Xposition Yposition Zposition Zrotation Xrotation Yrotation 
					JOINT Head
					{
						OFFSET 6.45672 0.0 0.0
						CHANNELS 6 Xposition Yposition Zposition Zrotation Xrotation Yrotation 
						End Site
						{
							OFFSET 0.0 0.0 0.0
						}
					}
				}
				JOINT Shoulder_L
				{
					OFFSET 12.9942 -0.242716 4.98039
					CHANNELS 6 Xposition Yposition Zposition Zrotation Xrotation Yrotation 
					JOINT UpperArm_L
					{
						OFFSET 5.34809 0.0 0.0
						CHANNELS 6 Xposition Yposition Zposition Zrotation Xrotation Yrotation 
						JOINT LowerArm_L
						{
							OFFSET 24.3286 1.87007e-05 0.0
							CHANNELS 6 Xposition Yposition Zposition Zrotation Xrotation Yrotation 
							JOINT Hand_L
							{
								OFFSET 22.2916 0.0 0.0
								CHANNELS 6 Xposition Yposition Zposition Zrotation Xrotation Yrotation 
								End Site
								{
									OFFSET 0.0 0.0 0.0
								}
							}
						}
					}
				}
				JOINT Shoulder_R
				{
					OFFSET 12.9945 -0.242716 -4.98039
					CHANNELS 6 Xposition Yposition Zposition Zrotation Xrotation Yrotation 
					JOINT UpperArm_R
					{
						OFFSET -5.34813 0.0 0.0
						CHANNELS 6 Xposition Yposition Zposition Zrotation Xrotation Yrotation 
						JOINT LowerArm_R
						{
							OFFSET -24.3289 0.000322201 0.0
							CHANNELS 6 Xposition Yposition Zposition Zrotation Xrotation Yrotation 
							JOINT Hand_R
							{
								OFFSET -22.2915 -0.000108084 0.0
								CHANNELS 6 Xposition Yposition Zposition Zrotation Xrotation Yrotation 
								End Site
								{
									OFFSET 0.0 0.0 0.0
								}
							}
						}
					}
				}
			}
		}
		JOINT UpperLeg_L
		{
			OFFSET -2.19248 -6.46944 0.0
			CHANNELS 6 Xposition Yposition Zposition Zrotation Xrotation Yrotation 
			JOINT LowerLeg_L
			{
				OFFSET 39.0811 0.0 -1.23785e-05
				CHANNELS 6 Xposition Yposition Zposition Zrotation Xrotation Yrotation 
				JOINT Foot_L
				{
					OFFSET 40.9854 0.0 -1.26872e-05
					CHANNELS 6 Xposition Yposition Zposition Zrotation Xrotation Yrotation 
					JOINT Toes_L
					{
						OFFSET 11.7543 0.0 0.0
						CHANNELS 6 Xposition Yposition Zposition Zrotation Xrotation Yrotation 
						End Site
						{
							OFFSET 0.0 0.0 0.0
						}
					}
				}
			}
		}
		JOINT UpperLeg_R
		{
			OFFSET -2.19251 6.46944 0.0
			CHANNELS 6 Xposition Yposition Zposition Zrotation Xrotation Yrotation 
			JOINT LowerLeg_R
			{
				OFFSET -39.0811 -0.00228153 -0.0401928
				CHANNELS 6 Xposition Yposition Zposition Zrotation Xrotation Yrotation 
				JOINT Foot_R
				{
					OFFSET -40.9854 0.0 0.0
					CHANNELS 6 Xposition Yposition Zposition Zrotation Xrotation Yrotation 
					JOINT Toes_R
					{
						OFFSET -11.7543 0.0 0.0
						CHANNELS 6 Xposition Yposition Zposition Zrotation Xrotation Yrotation 
						End Site
						{
							OFFSET 0.0 0.0 0.0
						}
					}
				}
			}
		}
	}
}
MOTION
Frames:	5
Frame Time:	0.0333333
0.000000 0.000000 0.000000 0.000000 0.000000 -0.000000 -0.191448 93.031700 -1.886360 87.193700 0.997563 1.777000 15.735700 0.000005 -0.000001 61.735300 87.015700 -59.740900 8.984550 -0.406207 -0.000000 -2.455120 -3.003250 3.925030 16.377300 -0.000001 -0.000001 5.665430 1.520570 -2.196430 6.456720 -0.000001 -0.000000 2.366930 1.318180 -2.273160 12.994200 -0.242716 4.980390 -92.347300 7.176210 -71.833300 5.348090 -0.000007 -0.000001 -74.210500 28.718500 0.356927 24.328600 0.000019 0.000005 12.640400 28.627500 -25.083500 22.291600 -0.000001 0.000005 -3.488040 5.032970 6.610200 12.994500 -0.242716 -4.980390 88.725700 3.858670 -71.708600 -5.348130 -0.000001 -0.000004 -72.820000 15.742900 -3.032810 -24.328900 0.000322 -0.000009 1.087630 2.436910 -24.082200 -22.291500 -0.000108 -0.000004 4.929230 5.209360 2.483640 -2.192480 -6.469440 -0.000000 -176.808000 2.364570 -3.092660 39.081100 -0.000007 -0.000012 0.192505 -0.531195 19.920900 40.985400 -0.000006 -0.000013 2.784750 9.899010 -71.165700 11.754300 -0.000000 0.000003 0.000781 0.153248 -10.361700 -2.192510 6.469440 -0.000001 -175.846000 5.372990 -178.648000 -39.081100 -0.002282 -0.040193 0.032079 -0.124027 13.048800 -40.985400 0.000008 0.000006 -0.891519 1.209490 -68.375000 -11.754300 -0.000006 -0.000006 -0.008425 0.259135 -6.048480
0.000000 0.000000 0.000000 0.000000 0.000000 -0.000000 -0.246518 93.034200 -1.923850 87.158200 1.012400 1.747430 15.735700 0.000005 -0.000001 61.802200 87.018300 -59.802600 8.984550 -0.406207 -0.000000 -2.456340 -2.995170 3.935590 16.377300 -0.000001 -0.000001 5.547630 1.477820 -2.151640 6.456720 -0.000001 -0.000000 2.276220 1.258340 -2.152160 12.994200 -0.242716 4.980390 -92.339900 7.168000 -71.868000 5.348090 -0.000007 -0.000001 -74.269600 28.742700 0.375644 24.328600 0.000019 0.000005 12.654400 28.655700 -25.089000 22.291600 -0.000001 0.000005 -3.392630 5.037360 6.514670 12.994500 -0.242716 -4.980390 88.709400 3.901950 -71.681700 -5.348130 -0.000001 -0.000004 -72.628600 14.686700 -2.924340 -24.328900 0.000322 -0.000009 1.006780 2.168220 -24.938000 -22.291500 -0.000108 -0.000004 4.663960 5.196400 2.809450 -2.192480 -6.469440 -0.000000 -176.720000 2.353380 -3.170040 39.081100 -0.000007 -0.000012 0.192687 -0.530533 19.961100 40.985400 -0.000006 -0.000013 2.739770 9.932590 -71.182500 11.754300 -0.000000 0.000003 0.000718 0.154514 -10.310300 -2.192510 6.469440 -0.000001 -175.760000 5.325230 -178.681000 -39.081100 -0.002282 -0.040193 0.032282 -0.125351 13.003600 -40.985400 0.000008 0.000006 -0.839465 1.176120 -68.369000 -11.754300 -0.000006 -0.000006 -0.008671 0.261095 -5.968390
0.000000 0.000000 0.000000 0.000000 0.000000 -0.000000 -0.308753 93.037900 -1.960270 87.134100 1.049150 1.707260 15.735700 0.000005 -0.000001 61.577600 87.005300 -59.567400 8.984550 -0.406207 -0.000000 -2.443610 -3.028870 3.956370 16.377300 -0.000001 -0.000001 5.373230 1.420590 -2.051010 6.456720 -0.000001 -0.000000 2.204710 1.197980 -2.064910 12.994200 -0.242716 4.980390 -92.343800 7.169500 -71.843100 5.348090 -0.000007 -0.000001 -74.322700 28.817500 0.362747 24.328600 0.000019 0.000005 12.655200 28.629800 -25.108600 22.291600 -0.000001 0.000005 -3.322970 5.034360 6.580010 12.994500 -0.242716 -4.980390 88.713500 3.894430 -71.703900 -5.348130 -0.000001 -0.000004 -72.360300 13.432300 -2.718150 -24.328900 0.000322 -0.000009 1.144890 2.306700 -26.426400 -22.291500 -0.000108 -0.000004 4.377260 5.184440 3.106430 -2.192480 -6.469440 -0.000000 -176.660000 2.499900 -3.254090 39.081100 -0.000007 -0.000012 0.193955 -0.533362 19.984000 40.985400 -0.000006 -0.000013 2.685470 9.894090 -71.182000 11.754300 -0.000000 0.000003 0.000623 0.156372 -10.234900 -2.192510 6.469440 -0.000001 -175.693000 5.336470 -178.748000 -39.081100 -0.002282 -0.040193 0.031413 -0.121775 12.984700 -40.985400 0.000008 0.000006 -0.944622 1.109690 -68.274900 -11.754300 -0.000006 -0.000006 -0.008502 0.259749 -6.023390
0.000000 0.000000 0.000000 0.000000 0.000000 -0.000000 -0.372713 93.037500 -1.999010 87.085800 1.111480 1.695150 15.735700 0.000005 -0.000001 61.645500 86.996200 -59.622600 8.984550 -0.406207 -0.000000 -2.423900 -3.031990 3.982220 16.377300 -0.000001 -0.000001 5.229590 1.369530 -1.943300 6.456720 -0.000001 -0.000000 2.069540 1.115360 -1.817120 12.994200 -0.242716 4.980390 -92.335800 7.149860 -71.854600 5.348090 -0.000007 -0.000001 -74.414500 28.739000 0.366629 24.328600 0.000019 0.000005 12.593600 28.478200 -25.104700 22.291600 -0.000001 0.000005 -3.310130 5.033470 6.599330 12.994500 -0.242716 -4.980390 88.677700 3.996880 -71.676700 -5.348130 -0.000001 -0.000004 -71.894100 11.546000 -2.407860 -24.328900 0.000322 -0.000009 1.259540 2.324160 -28.485900 -22.291500 -0.000108 -0.000004 3.664190 5.164770 3.588290 -2.192480 -6.469440 -0.000000 -176.565000 2.563840 -3.341750 39.081100 -0.000007 -0.000012 0.194485 -0.532544 20.062500 40.985400 -0.000006 -0.000013 2.627960 9.858510 -71.206200 11.754300 -0.000000 0.000003 0.000765 0.153555 -10.349300 -2.192510 6.469440 -0.000001 -175.593000 5.315840 -178.777000 -39.081100 -0.002282 -0.040193 0.031196 -0.121020 12.965300 -40.985400 0.000008 0.000006 -0.927486 1.100310 -68.287100 -11.754300 -0.000006 -0.000006 -0.008782 0.261966 -5.932800
0.000000 0.000000 0.000000 0.000000 0.000000 -0.000000 -0.438557 93.032600 -2.055020 87.023300 1.108330 1.661510 15.735700 0.000005 -0.000001 61.672200 86.989900 -59.626700 8.984550 -0.406207 -0.000000 -2.410620 -3.037340 4.027700 16.377300 -0.000001 -0.000001 5.077960 1.301120 -1.799010 6.456720 -0.000001 -0.000000 1.926060 1.095300 -1.542280 12.994200 -0.242716 4.980390 -92.340700 7.162110 -71.848100 5.348090 -0.000007 -0.000001 -74.424000 28.718400 0.390636 24.328600 0.000019 0.000005 12.676700 28.510700 -25.231500 22.291600 -0.000001 0.000005 -3.294520 5.034940 6.567200 12.994500 -0.242716 -4.980390 88.668500 4.014990 -71.636200 -5.348130 -0.000001 -0.000004 -71.527900 9.263510 -2.002860 -24.328900 0.000322 -0.000009 1.267790 2.084030 -31.345500 -22.291500 -0.000108 -0.000004 3.380080 5.137490 4.240750 -2.192480 -6.469440 -0.000000 -176.453000 2.571760 -3.485850 39.081100 -0.000007 -0.000012 0.196819 -0.535206 20.191100 40.985400 -0.000006 -0.000013 2.585770 9.875390 -71.210300 11.754300 -0.000000 0.000003 0.000699 0.154889 -10.295100 -2.192510 6.469440 -0.000001 -175.469000 5.269210 -178.871000 -39.081100 -0.002282 -0.040193 0.031273 -0.121088 12.992900 -40.985400 0.000008 0.000006 -0.914245 1.018890 -68.255800 -11.754300 -0.000006 -0.000006 -0.008642 0.260861 -5.977950
